<?xml version="1.0" standalone="no"?>
<!DOCTYPE svg PUBLIC "-//W3C//DTD SVG 20010904//EN"
 "http://www.w3.org/TR/2001/REC-SVG-20010904/DTD/svg10.dtd">
<svg version="1.0" xmlns="http://www.w3.org/2000/svg"
 width="512.000000pt" height="512.000000pt" viewBox="0 0 512.000000 512.000000"
 preserveAspectRatio="xMidYMid meet">
<metadata>
Created by potrace 1.11, written by Peter Selinger 2001-2013
</metadata>
<g transform="translate(0.000000,512.000000) scale(0.100000,-0.100000)"
fill="#000000" stroke="none">
<path d="M2506 5033 c-28 -7 -87 -46 -114 -75 -33 -36 -60 -115 -56 -167 4
-57 37 -123 80 -160 l34 -30 0 -191 c0 -199 0 -197 -42 -192 -6 1 -146 -22
-203 -33 -47 -9 -105 -25 -169 -46 -33 -10 -61 -18 -62 -16 -2 1 -27 61 -57
133 l-54 130 20 26 c56 74 29 191 -54 234 -126 65 -269 -58 -223 -191 18 -53
61 -94 105 -101 33 -6 40 -12 59 -58 34 -80 90 -217 90 -220 0 -2 -46 -29
-102 -60 -57 -31 -141 -85 -188 -121 l-85 -64 -136 136 c-128 128 -135 137
-133 172 2 46 -21 116 -52 158 -13 17 -49 44 -79 59 -48 23 -64 26 -120 22
-95 -8 -155 -49 -195 -134 -42 -90 -12 -219 63 -277 45 -34 122 -59 169 -53
38 4 41 3 168 -125 72 -71 130 -131 130 -134 0 -3 -22 -33 -48 -68 -71 -91
-104 -142 -157 -242 -27 -50 -49 -91 -51 -93 -4 -6 -259 102 -266 113 -4 5 -8
20 -8 33 0 36 -42 90 -83 109 -126 56 -254 -46 -225 -179 22 -103 142 -153
236 -98 23 14 38 17 50 11 9 -6 69 -31 133 -57 l116 -47 -19 -61 c-17 -53 -42
-153 -53 -209 -2 -10 -9 -54 -16 -98 l-11 -79 -187 0 -187 0 -30 31 c-64 69
-177 91 -264 52 -92 -41 -135 -111 -135 -218 0 -58 5 -77 27 -111 60 -93 153
-134 253 -112 47 10 133 65 141 90 4 15 25 17 193 18 l189 0 6 -43 c3 -23 8
-62 11 -87 8 -58 38 -188 63 -267 l20 -62 -27 -10 c-14 -5 -74 -29 -134 -54
l-107 -44 -44 22 c-133 67 -281 -78 -214 -210 50 -97 169 -119 252 -46 24 21
54 82 51 103 -2 11 10 22 38 34 23 10 44 18 47 18 3 1 10 4 15 8 17 11 167 69
170 66 1 -2 17 -31 34 -66 41 -82 91 -159 162 -253 l58 -77 -135 -133 c-121
-121 -138 -134 -167 -132 -51 4 -129 -24 -169 -60 -103 -92 -104 -256 -1 -347
156 -137 399 -22 388 185 l-2 48 128 129 c71 70 132 128 136 128 4 0 32 -20
62 -44 74 -57 181 -126 259 -165 34 -17 62 -33 62 -35 0 -5 -28 -74 -46 -113
-8 -18 -15 -36 -15 -40 -1 -5 -6 -17 -12 -28 -6 -11 -12 -22 -12 -25 -7 -29
-28 -62 -42 -66 -10 -3 -36 -14 -58 -25 -109 -53 -105 -217 6 -275 61 -31 148
-16 191 33 46 51 51 147 11 201 l-20 26 54 130 c30 72 55 131 56 132 1 1 54
-13 117 -31 112 -32 130 -36 235 -50 28 -4 59 -9 70 -10 11 -2 28 -4 38 -4 16
-1 18 -15 17 -192 l-2 -190 -38 -35 c-102 -92 -96 -259 11 -346 77 -63 173
-73 264 -27 50 25 114 115 116 163 5 95 -15 157 -66 206 l-35 34 0 193 c0 147
3 193 13 194 6 0 21 2 32 4 11 2 40 7 65 10 64 8 197 41 270 65 34 12 64 19
66 18 2 -2 27 -62 57 -133 l53 -130 -23 -34 c-26 -38 -30 -68 -19 -138 1 -7
12 -26 24 -43 80 -108 252 -69 282 64 17 78 -39 171 -110 182 -39 6 -39 7 -88
124 -28 65 -53 127 -56 138 -6 17 6 27 81 67 91 49 187 113 259 172 23 18 44
33 47 33 16 0 177 -172 171 -182 -4 -6 -3 -8 4 -4 5 3 30 -13 53 -35 41 -40
43 -45 45 -103 1 -33 9 -78 18 -98 61 -140 247 -183 363 -83 165 141 59 423
-155 411 -40 -2 -44 1 -181 138 l-141 141 37 45 c53 66 136 196 173 270 18 36
34 67 36 69 5 5 258 -102 266 -114 4 -5 8 -19 8 -31 0 -30 39 -85 75 -105 127
-73 277 48 230 185 -15 44 -39 73 -79 93 -41 21 -110 19 -151 -6 l-35 -20 -72
30 c-40 17 -91 38 -113 48 -22 10 -50 21 -61 25 -21 6 -21 8 -7 54 28 88 63
237 69 297 6 58 10 85 14 95 1 3 2 8 1 13 0 4 87 7 194 7 l196 0 32 -37 c61
-70 174 -94 265 -58 78 32 142 128 142 215 0 117 -100 224 -215 231 -75 5
-122 -10 -174 -57 l-49 -44 -195 0 -196 0 -6 48 c-5 42 -15 100 -20 127 -2 6
-8 36 -14 67 -7 31 -22 90 -35 131 l-23 74 134 56 135 55 34 -20 c20 -12 51
-20 78 -20 199 0 217 280 20 316 -75 14 -165 -53 -177 -132 -4 -25 -26 -52
-42 -52 -7 0 -30 -8 -51 -17 -22 -9 -41 -17 -44 -18 -3 -1 -25 -11 -50 -22
-82 -37 -86 -37 -100 -3 -23 54 -120 213 -176 286 -30 39 -54 74 -54 78 0 4
60 66 133 139 l132 132 66 2 c73 1 107 15 157 63 93 88 95 237 7 332 -37 40
-80 59 -147 65 -137 13 -249 -87 -253 -225 l-2 -55 -138 -138 -138 -138 -61
48 c-86 67 -139 102 -231 151 -44 24 -84 46 -88 50 -5 4 1 30 14 56 12 27 23
54 24 59 7 27 69 165 73 161 2 -3 21 2 40 10 98 40 135 140 86 225 -83 142
-292 89 -296 -74 0 -41 21 -99 41 -111 7 -5 -89 -259 -102 -273 -2 -1 -38 9
-81 22 -42 13 -103 29 -134 36 -31 7 -59 13 -62 14 -3 1 -30 5 -60 9 -30 4
-67 9 -82 12 l-28 6 0 191 0 191 36 37 c42 43 73 124 68 178 -14 148 -156 250
-298 214z"/>
<path d="M4749 3843 c-13 -16 -12 -17 4 -4 16 13 21 21 13 21 -2 0 -10 -8 -17
-17z"/>
</g>
</svg>
